<svg width="60" height="160" viewBox="0 0 60 160" fill="none" xmlns="http://www.w3.org/2000/svg">
<g clip-path="url(#clip0_114_8)">
<circle cx="2.5" cy="2.5" r="2.5" fill="#94BE98"/>
<circle cx="20.5" cy="2.5" r="2.5" fill="#94BE98"/>
<circle cx="38.5" cy="2.5" r="2.5" fill="#94BE98"/>
<circle cx="56.5" cy="2.5" r="2.5" fill="#94BE98"/>
<circle cx="2.5" cy="20.5" r="2.5" fill="#94BE98"/>
<circle cx="20.5" cy="20.5" r="2.5" fill="#94BE98"/>
<circle cx="38.5" cy="20.5" r="2.5" fill="#94BE98"/>
<circle cx="56.5" cy="20.5" r="2.5" fill="#94BE98"/>
<circle cx="2.5" cy="38.5" r="2.5" fill="#94BE98"/>
<circle cx="20.5" cy="38.5" r="2.5" fill="#94BE98"/>
<circle cx="38.5" cy="38.5" r="2.5" fill="#94BE98"/>
<circle cx="56.5" cy="38.5" r="2.5" fill="#94BE98"/>
<circle cx="2.5" cy="56.5" r="2.5" fill="#94BE98"/>
<circle cx="20.5" cy="56.5" r="2.5" fill="#94BE98"/>
<circle cx="38.5" cy="56.5" r="2.5" fill="#94BE98"/>
<circle cx="56.5" cy="56.5" r="2.5" fill="#94BE98"/>
<circle cx="2.5" cy="74.5" r="2.5" fill="#94BE98"/>
<circle cx="20.5" cy="74.5" r="2.5" fill="#94BE98"/>
<circle cx="38.5" cy="74.5" r="2.5" fill="#94BE98"/>
<circle cx="56.5" cy="74.5" r="2.5" fill="#94BE98"/>
<circle cx="2.5" cy="92.5" r="2.5" fill="#94BE98"/>
<circle cx="20.5" cy="92.5" r="2.5" fill="#94BE98"/>
<circle cx="38.5" cy="92.5" r="2.5" fill="#94BE98"/>
<circle cx="56.5" cy="92.5" r="2.5" fill="#94BE98"/>
<circle cx="2.5" cy="110.5" r="2.5" fill="#94BE98"/>
<circle cx="20.5" cy="110.5" r="2.5" fill="#94BE98"/>
<circle cx="38.5" cy="110.5" r="2.5" fill="#94BE98"/>
<circle cx="56.5" cy="110.5" r="2.5" fill="#94BE98"/>
<circle cx="2.5" cy="128.5" r="2.5" fill="#94BE98"/>
<circle cx="20.5" cy="128.5" r="2.5" fill="#94BE98"/>
<circle cx="38.5" cy="128.5" r="2.5" fill="#94BE98"/>
<circle cx="56.5" cy="128.5" r="2.5" fill="#94BE98"/>
<circle cx="2.5" cy="146.5" r="2.5" fill="#94BE98"/>
<circle cx="20.5" cy="146.5" r="2.5" fill="#94BE98"/>
<circle cx="38.5" cy="146.5" r="2.5" fill="#94BE98"/>
<circle cx="56.5" cy="146.5" r="2.5" fill="#94BE98"/>
</g>
<defs>
<clipPath id="clip0_114_8">
<rect width="60" height="160" fill="white"/>
</clipPath>
</defs>
</svg>
