<svg width="31" height="30" viewBox="0 0 31 30" fill="none" xmlns="http://www.w3.org/2000/svg">
<path d="M26.164 19.905C25.048 20.265 24.0095 20.835 23.002 21.48C21.545 22.44 20.3205 23.73 18.8015 24.6C17.0345 25.605 14.7405 25.695 12.741 25.65C10.881 25.605 9.08299 24.975 7.22299 24.93C8.68 21.9 11.873 19.515 15.2675 19.005C17.36 18.69 19.4835 18.885 21.576 19.17C23.1105 19.38 24.645 19.62 26.164 19.905ZM29.078 6.55498C27.528 9.25498 25.1565 11.655 22.692 13.56C21.4055 14.55 19.9485 15.39 18.352 15.81C16.616 16.275 14.7405 16.335 12.9425 16.5C13.0975 14.76 14.3995 13.29 15.6085 12.09C16.9415 10.77 18.445 9.50998 20.1655 8.71498C21.5605 8.06998 22.9245 7.57498 24.4435 7.25998C25.9625 6.95998 27.528 6.76498 29.078 6.55498ZM13.0665 3.10498C12.834 5.26498 12.524 7.40998 11.997 9.52498C11.4855 11.61 11.036 13.785 9.99749 15.705C8.16849 19.095 5.17699 21.69 1.93749 23.82C1.16249 19.74 2.01499 15.63 4.10749 12.03C6.21549 8.39998 9.207 5.06998 13.0665 3.10498Z" fill="#037425"/>
<path d="M29.6205 5.74497C29.9305 5.69997 30.132 5.98497 30.101 6.20997C30.101 6.26997 30.0855 6.31497 30.0545 6.37497C28.458 9.43497 25.761 12.225 22.9555 14.31C21.607 15.315 20.1035 16.155 18.4295 16.575C16.5385 17.055 14.508 17.1 12.5705 17.295C12.462 17.31 12.3845 17.28 12.3225 17.235C12.214 17.175 12.1365 17.07 12.1365 16.92C12.121 15.135 13.1905 13.545 14.3685 12.27C15.7325 10.8 17.36 9.32997 19.1735 8.36997C22.444 6.64497 25.9935 6.22497 29.6205 5.74497ZM22.692 13.575C25.1565 11.67 27.5435 9.26997 29.078 6.56997C27.528 6.76497 25.9625 6.95997 24.428 7.28997C22.909 7.60497 21.5605 8.09997 20.15 8.74497C18.4295 9.53997 16.926 10.8 15.593 12.12C14.384 13.32 13.0975 14.79 12.927 16.53C14.725 16.365 16.6005 16.305 18.3365 15.84C19.9485 15.39 21.4055 14.565 22.692 13.575ZM28.0085 19.5C28.4115 19.575 28.334 20.085 28.024 20.205C27.9775 20.235 27.9155 20.265 27.838 20.28C25.854 20.52 24.0405 21.585 22.506 22.77C21.173 23.805 19.933 25.005 18.352 25.665C16.6625 26.37 14.5545 26.445 12.741 26.415C10.6795 26.37 8.6955 25.605 6.634 25.695C6.51 25.695 6.4015 25.65 6.3395 25.575C6.2465 25.5 6.2 25.38 6.262 25.215C7.626 21.885 10.8965 19.11 14.539 18.375C16.6935 17.94 18.91 18.075 21.08 18.345C23.405 18.645 25.7145 19.035 28.0085 19.5ZM23.002 21.495C23.994 20.835 25.0325 20.28 26.164 19.92C24.645 19.635 23.1105 19.38 21.576 19.185C19.499 18.915 17.36 18.705 15.2675 19.02C11.873 19.53 8.68 21.9 7.223 24.945C9.083 24.99 10.8655 25.635 12.741 25.665C14.7405 25.71 17.0345 25.605 18.8015 24.615C20.3205 23.73 21.545 22.455 23.002 21.495ZM13.733 2.26497C13.8415 2.32497 13.9035 2.42997 13.888 2.57997C13.64 5.02497 13.299 7.46997 12.71 9.85497C12.183 11.97 11.718 14.13 10.664 16.08C8.6955 19.74 5.3785 22.515 1.8755 24.765C1.7515 24.84 1.6275 24.84 1.5345 24.795C1.426 24.765 1.3485 24.675 1.3175 24.54C0.356499 20.205 1.1005 15.705 3.3325 11.865C5.6575 7.85997 8.9125 4.19997 13.268 2.15997C13.4385 2.08497 13.6245 2.14497 13.733 2.26497ZM11.997 9.52497C12.5085 7.40997 12.8185 5.26497 13.0665 3.10497C9.2225 5.06997 6.231 8.39997 4.123 12.03C2.0305 15.645 1.178 19.74 1.953 23.82C5.177 21.69 8.184 19.095 10.013 15.705C11.036 13.785 11.4855 11.61 11.997 9.52497Z" fill="#037425"/>
</svg>
