<svg width="19" height="25" viewBox="0 0 19 25" fill="none" xmlns="http://www.w3.org/2000/svg">
<path d="M8.58023 24.0385C8.58023 24.5695 8.99183 25 9.49954 25C10.0072 25 10.4188 24.5695 10.4188 24.0385H8.58023ZM10.4188 13.7822C10.4188 13.2512 10.0072 12.8207 9.49954 12.8207C8.99183 12.8207 8.58023 13.2512 8.58023 13.7822H10.4188ZM10.4188 10.4143C10.4188 9.88325 10.0072 9.45277 9.49954 9.45277C8.99183 9.45277 8.58023 9.88325 8.58023 10.4143H10.4188ZM8.58023 11.5425C8.58023 12.0735 8.99183 12.504 9.49954 12.504C10.0072 12.504 10.4188 12.0735 10.4188 11.5425H8.58023ZM10.0476 12.3145C10.4551 11.998 10.5403 11.3957 10.2377 10.9693C9.93504 10.5429 9.35919 10.4539 8.9515 10.7705L10.0476 12.3145ZM6.77216 12.4627C6.3645 12.7793 6.27938 13.3816 6.58203 13.808C6.88468 14.2343 7.46051 14.3234 7.86819 14.0068L6.77216 12.4627ZM10.4188 11.5425C10.4188 11.0115 10.0072 10.581 9.49954 10.581C8.99183 10.581 8.58023 11.0115 8.58023 11.5425H10.4188ZM8.58023 13.7822C8.58023 14.3132 8.99183 14.7437 9.49954 14.7437C10.0072 14.7437 10.4188 14.3132 10.4188 13.7822H8.58023ZM9.84238 12.89C9.3712 12.692 8.83592 12.9309 8.64654 13.4236C8.45716 13.9163 8.68564 14.4763 9.15669 14.6744L9.84238 12.89ZM11.8803 15.8192C12.3515 16.0173 12.8868 15.7783 13.0761 15.2856C13.2655 14.7928 13.037 14.2328 12.566 14.0349L11.8803 15.8192ZM10.4188 24.0385V13.7822H8.58023V24.0385H10.4188ZM8.58023 10.4143V11.5425H10.4188V10.4143H8.58023ZM8.9515 10.7705L6.77216 12.4627L7.86819 14.0068L10.0476 12.3145L8.9515 10.7705ZM8.58023 11.5425V13.7822H10.4188V11.5425H8.58023ZM9.15669 14.6744L11.8803 15.8192L12.566 14.0349L9.84238 12.89L9.15669 14.6744ZM1.83862 9.93611C1.83889 6.11352 4.42084 2.8234 8.00547 2.07788L7.64694 0.191767C3.20194 1.11619 0.000330977 5.19594 2.53311e-08 9.93598L1.83862 9.93611ZM8.00547 2.07788C11.59 1.33238 15.179 3.33911 16.5775 6.87087L18.2761 6.13506C16.5422 1.75568 12.0919 -0.732668 7.64694 0.191767L8.00547 2.07788ZM16.5775 6.87087C17.9759 10.4026 16.7943 14.4758 13.7553 16.5993L14.7767 18.1983C18.5451 15.5651 20.0102 10.5144 18.2761 6.13506L16.5775 6.87087ZM13.7553 16.5993C10.7163 18.7229 6.66638 18.3055 4.08218 15.6023L2.782 16.962C5.98642 20.3139 11.0084 20.8316 14.7767 18.1983L13.7553 16.5993ZM4.08218 15.6023C2.6455 14.0995 1.83847 12.0613 1.83862 9.93611L2.53311e-08 9.93598C-0.000183837 12.5712 1.00054 15.0986 2.782 16.962L4.08218 15.6023Z" fill="#037425"/>
</svg>
